<svg width="32" height="32" viewBox="0 0 32 32" fill="none" xmlns="http://www.w3.org/2000/svg">
<path d="M13.7662 5.76544C14.3347 3.42356 17.6653 3.42356 18.2338 5.76545C18.6011 7.27827 20.3343 7.9962 21.6638 7.18617C23.7217 5.93222 26.0768 8.2873 24.8229 10.3453C24.0128 11.6747 24.7308 13.4079 26.2436 13.7752C28.5855 14.3437 28.5855 17.6743 26.2436 18.2429C24.7308 18.6101 24.0128 20.3434 24.8229 21.6728C26.0768 23.7308 23.7217 26.0858 21.6638 24.8319C20.3343 24.0219 18.6011 24.7398 18.2338 26.2526C17.6653 28.5945 14.3347 28.5945 13.7662 26.2526C13.3989 24.7398 11.6657 24.0219 10.3362 24.8319C8.27827 26.0858 5.92319 23.7308 7.17713 21.6728C7.98717 20.3434 7.26924 18.6101 5.75641 18.2429C3.41453 17.6743 3.41453 14.3437 5.75641 13.7752C7.26924 13.4079 7.98717 11.6747 7.17713 10.3453C5.92319 8.2873 8.27827 5.93222 10.3362 7.18617C11.6657 7.9962 13.3989 7.27827 13.7662 5.76544Z" stroke="#827D89" stroke-width="2" stroke-linecap="round" stroke-linejoin="round"/>
<path d="M20 16.009C20 18.2182 18.2091 20.009 16 20.009C13.7909 20.009 12 18.2182 12 16.009C12 13.7999 13.7909 12.009 16 12.009C18.2091 12.009 20 13.7999 20 16.009Z" stroke="#827D89" stroke-width="2" stroke-linecap="round" stroke-linejoin="round"/>
</svg>
