<svg width="32" height="32" viewBox="0 0 32 32" fill="none" xmlns="http://www.w3.org/2000/svg">
<path d="M12.7071 17.9686C12.3166 17.5781 11.6834 17.5781 11.2929 17.9686C10.9024 18.3591 10.9024 18.9923 11.2929 19.3828L12.7071 17.9686ZM14.6667 21.3424L13.9596 22.0495C14.3501 22.44 14.9833 22.44 15.3738 22.0495L14.6667 21.3424ZM20.7071 16.7161C21.0977 16.3256 21.0977 15.6925 20.7071 15.3019C20.3166 14.9114 19.6834 14.9114 19.2929 15.3019L20.7071 16.7161ZM24.3334 9.34237V25.3424H26.3334V9.34237H24.3334ZM22.6667 27.009H9.33335V29.009H22.6667V27.009ZM7.66669 25.3424V9.34237H5.66669V25.3424H7.66669ZM9.33335 7.6757H12V5.6757H9.33335V7.6757ZM20 7.6757H22.6667V5.6757H20V7.6757ZM9.33335 27.009C8.41288 27.009 7.66669 26.2628 7.66669 25.3424H5.66669C5.66669 27.3674 7.30831 29.009 9.33335 29.009V27.009ZM24.3334 25.3424C24.3334 26.2628 23.5872 27.009 22.6667 27.009V29.009C24.6917 29.009 26.3334 27.3674 26.3334 25.3424H24.3334ZM26.3334 9.34237C26.3334 7.31732 24.6917 5.6757 22.6667 5.6757V7.6757C23.5872 7.6757 24.3334 8.42189 24.3334 9.34237H26.3334ZM7.66669 9.34237C7.66669 8.42189 8.41288 7.6757 9.33335 7.6757V5.6757C7.30831 5.6757 5.66669 7.31732 5.66669 9.34237H7.66669ZM11.2929 19.3828L13.9596 22.0495L15.3738 20.6353L12.7071 17.9686L11.2929 19.3828ZM15.3738 22.0495L20.7071 16.7161L19.2929 15.3019L13.9596 20.6353L15.3738 22.0495ZM14.6667 5.00903H17.3334V3.00903H14.6667V5.00903ZM17.3334 8.34237H14.6667V10.3424H17.3334V8.34237ZM14.6667 8.34237C13.7462 8.34237 13 7.59617 13 6.6757H11C11 8.70074 12.6416 10.3424 14.6667 10.3424V8.34237ZM19 6.6757C19 7.59617 18.2538 8.34237 17.3334 8.34237V10.3424C19.3584 10.3424 21 8.70074 21 6.6757H19ZM17.3334 5.00903C18.2538 5.00903 19 5.75523 19 6.6757H21C21 4.65066 19.3584 3.00903 17.3334 3.00903V5.00903ZM14.6667 3.00903C12.6416 3.00903 11 4.65066 11 6.6757H13C13 5.75523 13.7462 5.00903 14.6667 5.00903V3.00903Z" fill="#827D89"/>
</svg>
