<svg width="32" height="32" viewBox="0 0 32 32" fill="none" xmlns="http://www.w3.org/2000/svg">
<path d="M17.1314 3.67761C16.5065 3.05277 15.4935 3.05277 14.8686 3.67761L3.66864 14.8776C3.0438 15.5025 3.0438 16.5155 3.66864 17.1404C4.29348 17.7652 5.30654 17.7652 5.93138 17.1404L6.40001 16.6717V27.209C6.40001 28.0926 7.11636 28.809 8.00001 28.809H11.2C12.0837 28.809 12.8 28.0926 12.8 27.209V24.009C12.8 23.1253 13.5164 22.409 14.4 22.409H17.6C18.4837 22.409 19.2 23.1253 19.2 24.009V27.209C19.2 28.0926 19.9164 28.809 20.8 28.809H24C24.8837 28.809 25.6 28.0926 25.6 27.209V16.6717L26.0686 17.1404C26.6935 17.7652 27.7065 17.7652 28.3314 17.1404C28.9562 16.5155 28.9562 15.5025 28.3314 14.8776L17.1314 3.67761Z" fill="#6A3EA1"/>
</svg>
