<svg width="22" height="22" viewBox="0 0 22 22" fill="none" xmlns="http://www.w3.org/2000/svg">
<path d="M8.25004 4.58333H6.41671C5.40419 4.58333 4.58337 5.40414 4.58337 6.41667V17.4167C4.58337 18.4292 5.40419 19.25 6.41671 19.25H15.5834C16.5959 19.25 17.4167 18.4292 17.4167 17.4167V6.41667C17.4167 5.40414 16.5959 4.58333 15.5834 4.58333H13.75M8.25004 4.58333C8.25004 5.59586 9.07085 6.41667 10.0834 6.41667H11.9167C12.9292 6.41667 13.75 5.59586 13.75 4.58333M8.25004 4.58333C8.25004 3.57081 9.07085 2.75 10.0834 2.75H11.9167C12.9292 2.75 13.75 3.57081 13.75 4.58333" stroke="white" stroke-linecap="round"/>
</svg>
